<svg xmlns="http://www.w3.org/2000/svg" viewBox="5805 8330 17 16.7">
  <defs>
    <style>
      .cls-1 {
        opacity: 0.54;
      }
    </style>
  </defs>
  <g id="noun_770797_cc" transform="translate(5805 8330)">
    <path id="Path_580" data-name="Path 580" class="cls-1" d="M1.606,18.579H17.449a.588.588,0,0,0,.581-.588c0-2.985-3.764-4.175-5.379-4.55a.045.045,0,0,1-.033-.043v-.642a4.909,4.909,0,0,0,.822-1.628,3.24,3.24,0,0,0,.713-1.437,2.327,2.327,0,0,0-.125-2.02l-.019-.026c.219-1.06.491-3.543-1.4-4.8a1.166,1.166,0,0,0,.333-.849.113.113,0,0,0-.04-.078.118.118,0,0,0-.078-.028,15.961,15.961,0,0,1-3.529.033A2.518,2.518,0,0,0,6.577,3.476a1.716,1.716,0,0,0-1.121.633,3.816,3.816,0,0,0-.47,3.011c.014.174.035.347.066.521l-.021.026a2.333,2.333,0,0,0-.123,2.02,3.289,3.289,0,0,0,.711,1.437,4.932,4.932,0,0,0,.822,1.64v.632a.043.043,0,0,1-.033.043C4.79,13.811,1.03,15,1.03,17.987a.588.588,0,0,0,.576.592Zm7.921-2.853a3.1,3.1,0,0,1-2.544-1.265,1.215,1.215,0,0,0,.554-.658,3.939,3.939,0,0,0,.849.416,3.424,3.424,0,0,0,2.284,0,4.022,4.022,0,0,0,.847-.427,1.215,1.215,0,0,0,.555.666A3.1,3.1,0,0,1,9.527,15.726ZM5.916,9.4c-.208-.736-.12-1-.05-1.1a.239.239,0,0,1,.206-.09h.05a.111.111,0,0,0,.118-.1A3.138,3.138,0,0,1,7.311,5.941,1.912,1.912,0,0,1,9.1,5.973a5.214,5.214,0,0,0,3.234.439,1.492,1.492,0,0,1,.489,1.635v.023a.111.111,0,0,0,.017.106.113.113,0,0,0,.1.042.269.269,0,0,1,.252.087c.071.094.158.361-.05,1.1-.267.942-.484,1.031-.545,1.041a.111.111,0,0,0-.1.094,3.593,3.593,0,0,1-2.181,2.7,2.351,2.351,0,0,1-1.576,0,3.524,3.524,0,0,1-2.176-2.7.111.111,0,0,0-.1-.094C6.4,10.436,6.182,10.345,5.916,9.4Z" transform="translate(-1.03 -1.879)"/>
  </g>
</svg>
