<svg xmlns="http://www.w3.org/2000/svg" viewBox="-2198 9485 266 264"><defs><style>.a{fill:#305075;}.b{fill:#fff;}</style></defs><g transform="translate(-2424 8396)"><rect class="a" width="266" height="264" transform="translate(226 1089)"/><path class="b" d="M73.354,14.118,24.126,6.133,1.4,40.757V44.5L6.5,46,6.494,80.061l49.26,17.212L93.1,85.118,93.1,44l6.707,1.988,2.994-3.068Zm-20.625.568,9.029,1.443v9.73l-5.583,9.953V19.028l-8.154-1.374ZM89.452,81.859l-9.211,2.918V57.761l-11.48,3.6V88.552l-11.6,3.794.012-37.916-2.988,5.817L23.633,51.131V47.225L52.08,55.71,72.286,19.063,89.464,35.886Z" transform="translate(307 1168.867)"/></g></svg>