<svg xmlns="http://www.w3.org/2000/svg" viewBox="-3859 9167 362 200"><defs><style>.a{fill:#305075;}.b{fill:#fff;}</style></defs><g transform="translate(-4087 8396)"><path class="a" d="M2,0H360a2,2,0,0,1,2,2V200a0,0,0,0,1,0,0H0a0,0,0,0,1,0,0V2A2,2,0,0,1,2,0Z" transform="translate(228 771)"/><path class="b" d="M63.8,13.058,21.108,6.133,1.4,36.16V39.4l4.426,1.3L5.817,70.244,48.536,85.171,80.919,74.63l0-35.659,5.816,1.724,2.6-2.661Zm-17.886.492,7.83,1.252V23.24L48.9,31.871V17.315l-7.071-1.191ZM77.76,71.8l-7.988,2.531V50.905l-9.956,3.12V77.607L49.755,80.9l.011-32.881-2.591,5.044-26.495-7.9V41.768L45.35,49.127l17.524-31.78,14.9,14.588Z" transform="translate(363 825.829)"/></g></svg>