<svg xmlns="http://www.w3.org/2000/svg" viewBox="-1847 9276 13.753 16.699"><defs></defs><g transform="translate(-1883 9243)"><g class="a" transform="translate(36 33)"><path d="M36.89,985.362a.976.976,0,0,0-.89.985,1,1,0,0,0,.982.979h.982v5.893h-.982a.982.982,0,0,0,0,1.964h.982v1.964h-.982a.982.982,0,1,0,0,1.964h.982v1.964a.982.982,0,1,0,1.965,0v-1.964h5.894a.982.982,0,1,0,0-1.964H39.929v-1.964h4.912a4.911,4.911,0,1,0,0-9.822Zm3.039,1.964h4.912a2.947,2.947,0,1,1,0,5.893H39.929Z" transform="translate(-36 -985.362)"/></g></g></svg>
